<svg width="20" height="20" viewBox="0 0 20 20" fill="none" xmlns="http://www.w3.org/2000/svg">
    <path d="M6.2918 18.125C13.8371 18.125 17.9652 11.8723 17.9652 6.45155C17.9652 6.27577 17.9613 6.09608 17.9535 5.9203C18.7566 5.33955 19.4496 4.62021 20 3.79608C19.2521 4.12883 18.458 4.34615 17.6449 4.44061C18.5011 3.92742 19.1421 3.12123 19.4492 2.17147C18.6438 2.6488 17.763 2.98551 16.8445 3.16718C16.2257 2.50963 15.4075 2.07426 14.5164 1.92838C13.6253 1.78249 12.711 1.93421 11.9148 2.36008C11.1186 2.78595 10.4848 3.46225 10.1115 4.28443C9.73825 5.1066 9.64619 6.02885 9.84961 6.90858C8.21874 6.82674 6.62328 6.40309 5.16665 5.66508C3.71002 4.92708 2.42474 3.8912 1.39414 2.6246C0.870333 3.5277 0.710047 4.59637 0.945859 5.61341C1.18167 6.63045 1.79589 7.51954 2.66367 8.09999C2.01219 8.0793 1.37498 7.9039 0.804688 7.58827V7.63905C0.804104 8.58679 1.13175 9.50549 1.73192 10.239C2.3321 10.9725 3.16777 11.4755 4.09687 11.6625C3.49338 11.8276 2.85999 11.8517 2.2457 11.7328C2.50788 12.5479 3.01798 13.2607 3.70481 13.7719C4.39164 14.2831 5.22093 14.5672 6.07695 14.5844C4.62369 15.7259 2.82848 16.3451 0.980469 16.3422C0.652739 16.3417 0.325333 16.3216 0 16.282C1.87738 17.4865 4.06128 18.1262 6.2918 18.125Z" fill="#98A2B3"/>
</svg>
